<svg viewBox="0 0 150 25" width="150" height="25" xmlns="http://www.w3.org/2000/svg">
 <g fill="#999" clip-rule="evenodd" fill-rule="evenodd">
  <path d="m39 5.664c-0.379-1.561-2.599-1.561-2.978 0a1.533 1.533 0 0 1-2.287 0.947c-1.372-0.836-2.942 0.734-2.106 2.106 0.54 0.886 0.06 2.042-0.947 2.287-1.561 0.38-1.561 2.6 0 2.978a1.533 1.533 0 0 1 0.947 2.287c-0.836 1.372 0.734 2.942 2.106 2.106a1.533 1.533 0 0 1 2.287 0.947c0.379 1.561 2.599 1.561 2.978 0a1.533 1.533 0 0 1 2.287-0.947c1.372 0.836 2.942-0.734 2.106-2.106a1.533 1.533 0 0 1 0.947-2.287c1.561-0.379 1.561-2.599 0-2.978a1.533 1.533 0 0 1-0.947-2.287c0.836-1.372-0.734-2.942-2.106-2.106a1.533 1.533 0 0 1-2.287-0.947zm-1.489 9.829a3 3 0 1 0 0-6 3 3 0 0 0 0 6z"/>
  <path d="m12.5 14.5a2 2 0 1 0 0-4 2 2 0 0 0 0 4z"/>
  <path d="m2.958 12.5c1.274-4.057 5.064-7 9.542-7s8.268 2.943 9.542 7c-1.274 4.057-5.064 7-9.542 7s-8.268-2.943-9.542-7zm13.54 0a4 4 0 1 1-8 0 4 4 0 0 1 8 0zm70-8.005a0.998 0.998 0 0 0-0.894 0.553l-0.724 1.447h-3.382a1 1 0 0 0 0 2v10a2 2 0 0 0 2 2h8a2 2 0 0 0 2-2v-10a1 1 0 0 0 0-2h-3.382l-0.724-1.447a0.998 0.998 0 0 0-0.894-0.553zm-2 6a1 1 0 0 1 2 0v6a1 1 0 0 1-2 0zm5-1a1 1 0 0 0-1 1v6a1 1 0 0 0 2 0v-6a1 1 0 0 0-1-1zm-26.99 11a8 8 0 1 0 0-16 8 8 0 0 0 0 16zm-1.293-10.71a0.9998 0.9998 0 1 0-1.414 1.414l1.293 1.293-1.293 1.293a1 1 0 1 0 1.414 1.414l1.293-1.293 1.293 1.293a0.9998 0.9998 0 1 0 1.414-1.414l-1.293-1.293 1.293-1.293a1 1 0 1 0-1.414-1.414l-1.293 1.293z"/>
  <path d="m112.5 5.507c0.265 0 0.52 0.105 0.707 0.293l3 3c0.391 0.39 0.391 1.024 0 1.414-0.39 0.391-1.024 0.391-1.414 0l-2.293-2.293-2.293 2.293c-0.39 0.391-1.024 0.391-1.414 0-0.391-0.39-0.391-1.024 0-1.414l3-3c0.187-0.188 0.442-0.293 0.707-0.293zm-3.707 9.293c0.39-0.391 1.024-0.391 1.414 0l2.293 2.293 2.293-2.293c0.39-0.391 1.024-0.391 1.414 0 0.391 0.39 0.391 1.024 0 1.414l-3 3c-0.39 0.391-1.024 0.391-1.414 0l-3-3c-0.391-0.39-0.391-1.024 0-1.414z"/>
  <path d="m130.5 5.5c0-0.552 0.448-1 1-1h12c0.552 0 1 0.448 1 1v3c0 0.265-0.105 0.52-0.293 0.707l-4.707 4.707v3.586c0 0.265-0.105 0.52-0.293 0.707l-2 2c-0.286 0.286-0.716 0.372-1.09 0.217-0.373-0.155-0.617-0.52-0.617-0.924v-5.586l-4.707-4.707c-0.188-0.187-0.293-0.442-0.293-0.707z"/>
 </g>
</svg>
