<svg width="69.23" height="27.77" viewBox="0 0 18.32 7.35" xmlns="http://www.w3.org/2000/svg"><g stroke-linejoin="round" fill="forestgreen"><path d="M9 3.69c-.54-.1-1-.42-1.44-.71-.4-.32-.86-.54-1.22-.9-.45-.34-1-.43-1.51-.65a4.9 4.9 0 0 0-2.11-.35 7.6 7.6 0 0 0-2.2.47c.38.1.73-.22 1.1-.2A5.84 5.84 0 0 1 6.15 2.5c.42.33.85.65 1.29.97.36.25.78.39 1.17.57.24.11.32-.19.4-.35z"/><path d="M7.18 2.75c-.37-.03-.79-.1-.98-.1-.4-.05-.84-.03-1.23.27-.55.42-1.18.9-1.91.84a7.99 7.99 0 0 1-2.81-.7c.2.25.59.26.81.45.9.24 1.79.58 2.73.53.61-.06 1.07-.52 1.57-.84.34-.2.54-.04.94-.06.3-.1.81.22.97-.14.04-.08-.04-.21-.04-.21z"/><path d="M7.85 3.2c-.48.06-1.02-.11-1.44.22-.43.26-.78.64-1.12 1C4.9 4.9 4.6 5.5 4 5.78c-.88.43-1.49.47-2.91.39-1.11-.06-1.47-.04.63.08.86.08 2.14.03 2.88-.46.4-.23.68-.58.94-.94.31-.35.67-.64 1.02-.95.32-.23.7-.28 1.08-.22.23-.02.2-.3.21-.46z"/><path d="M3.67 3.82c-.4.32-.75.8-1.3.84a5.4 5.4 0 0 1-1.55-.07c.12.3.6.14.88.25.51.05 1.1.06 1.52-.3.1-.25.76-.38.5-.7l-.05-.02zM5.25 2.8c-.38-.1-.82-.04-1.13-.32-.42-.23-.85-.5-1.35-.46-.3 0-.6.06-.9.13.48.08 1-.07 1.44.2.45.13.79.5 1.24.59.26-.08.65.26.7-.13z"/><path d="M9.6 3.07c.26-.13.55-.13.83-.12.2.01.42.03.62.08l.3.11.43.24.36.2.22.16.15.12a2.17 2.17 0 0 1 .28.3l.1.14.1.15.1.12c.02.05.13.08.17.12.09.09.21.11.33.15.69.24 1.3.48.4-.19-.06-.06-.35-.17-.4-.24a.75.75 0 0 0-.08-.1l-.1-.11a1.54 1.54 0 0 1-.09-.13l-.13-.17-.15-.17-.17-.17a.91.91 0 0 0-.18-.15l-.29-.17-.37-.18c-.15-.07-.3-.15-.43-.25a.66.66 0 0 0-.41-.14c-.28-.02-.55 0-.83.03-.29.01-.6.02-.88-.1-.03 0 .1.48.13.47z"/><path d="M12.07 3.3c.07-.05.16-.1.25-.13l.23-.11.17-.08.1-.06.1-.05a.48.48 0 0 0 .1-.06l.1-.1a1.7 1.7 0 0 1 .17-.17l.1-.08.1-.09c.03-.03.08-.04.12-.06l.18-.09a3.37 3.37 0 0 1 1.38-.35h.25l.3.01v-.03l-.29-.04h-.28a6.94 6.94 0 0 0-1.5.22 3.61 3.61 0 0 0-.34.17l-.11.09a2.78 2.78 0 0 0-.2.18l-.1.1-.06.06-.08.04a3.4 3.4 0 0 1-.1.06l-.1.06-.15.08-.22.12c-.09.04-.18.08-.27.1a.6.6 0 0 0 .15.21z"/><path d="M12.49 3.21a1.33 1.33 0 0 1 .56-.16H13.88a5.92 5.92 0 0 1 .33 0l.02.01h-.03H14.56h-.03l.08.05.09.08.08.07.23.16c.3.17.62.27.95.36l.8.15.02-.04A5 5 0 0 1 16 3.7a2.69 2.69 0 0 1-1.03-.6l-.09-.1a1.19 1.19 0 0 0-.09-.06l-.12-.1a.32.32 0 0 0-.18-.03h-.06.04-.65a22.41 22.41 0 0 1-.85.01l-.3.07c-.1.04-.2.08-.31.1-.02 0-.14.3-.13.28zM13.33 4.72c.1.01.19.08.28.1l.27.03c.06.04-.11-.02-.03 0l.1.05c.04.01.07.04.1.07l.1.08.13.07.1.06c.03.04.04.02.08.05.04.03.06.05.11.06l.2.06c.09.04.2.03.3.05.25.01.4 0 .65.04h.07c-.24-.06-.47-.12-.7-.2l-.24-.08c-.06-.04-.14-.04-.18-.06a.75.75 0 0 1-.11-.08.7.7 0 0 0-.13-.1c-.04-.01-.07-.04-.11-.06l-.08-.05a.87.87 0 0 0-.24-.16c-.2-.06-.1-.03-.3-.03a.83.83 0 0 1-.26-.07c-.02-.01-.12.13-.1.14z"/><path d="M15.14.32c-.25.03-.35.01-.52.04-.25.1-.5.2-.77.27a3.9 3.9 0 0 0-.7.29l-.47.24c-.12.06-.25.12-.37.2l-.44.26c-.15.08-.3.17-.46.24-.15.08-.2.12-.27.17-.18.09-.38.12-.57.16l-.91.17c-.2.03-.4.07-.6.03-.04.01.14.47.18.46.16-.1.36-.15.55-.2.3-.09.59-.15.89-.19.21-.03.43-.02.64-.03.1 0 .18-.06.25-.13l.12-.11a6.16 6.16 0 0 1 .87-.5l.38-.2c.15-.1.29-.2.44-.28a3.73 3.73 0 0 1 1.41-.54c.15-.03.3-.04.46-.05l.51-.02L16.82.6c.3 0 .6.02.9.08l.32.06.01-.02c-.4-.09-.79-.17-1.17-.27a5.27 5.27 0 0 0-1.02-.16c-.25-.02-.22-.03-.4 0z"/><path d="M9.57 2.64c-.04.01-.36.2-.33.2.13-.02.41.27.54.3.15.04.3.1.43.18l.3.2a2.8 2.8 0 0 1 1.03 1.24l.16.34.17.3c.08.14.2.24.33.34.3.2.63.35.96.5.48.2.96.38 1.46.55.39.13.8.2 1.2.29l-.45-.13c-.48-.14-.36-.12-.71-.24-.56-.22-.95-.35-1.4-.62a3.43 3.43 0 0 1-.77-.6c-.08-.09-.15-.19-.22-.3-.06-.08-.12-.16-.16-.25a5.71 5.71 0 0 1-.17-.35l-.15-.31-.16-.26c-.05-.08-.1-.17-.16-.24a2.18 2.18 0 0 0-.27-.22 5.4 5.4 0 0 1-.39-.33c-.1-.1-.22-.19-.35-.25-.16-.07-.32-.12-.49-.18-.13-.05-.27-.09-.4-.16z"/></g></svg>