<svg width="200" height="25" viewBox="0 0 200 25" xmlns="http://www.w3.org/2000/svg"><g fill="#000" fill-rule="evenodd"><path d="M39 5.66c-.38-1.56-2.6-1.56-2.98 0a1.53 1.53 0 0 1-2.29.95c-1.37-.84-2.94.73-2.1 2.1.54.9.06 2.05-.95 2.3-1.56.37-1.56 2.6 0 2.97a1.53 1.53 0 0 1 .95 2.29c-.84 1.37.73 2.94 2.1 2.1a1.53 1.53 0 0 1 2.3.95c.37 1.56 2.6 1.56 2.97 0a1.53 1.53 0 0 1 2.29-.95c1.37.84 2.94-.73 2.1-2.1a1.53 1.53 0 0 1 .95-2.29c1.56-.38 1.56-2.6 0-2.98a1.53 1.53 0 0 1-.95-2.28c.84-1.38-.73-2.95-2.1-2.1A1.53 1.53 0 0 1 39 5.65zm-1.49 9.83a3 3 0 1 0 0-6 3 3 0 0 0 0 6zM12.5 14.5a2 2 0 1 0 0-4 2 2 0 0 0 0 4z"/><path d="M2.96 12.5a10 10 0 0 1 19.08 0 10 10 0 0 1-19.08 0zm13.54 0a4 4 0 1 1-8 0 4 4 0 0 1 8 0zm70-8a1 1 0 0 0-.9.55l-.72 1.44H81.5a1 1 0 0 0 0 2v10a2 2 0 0 0 2 2h8a2 2 0 0 0 2-2v-10a1 1 0 0 0 0-2h-3.38l-.73-1.44a1 1 0 0 0-.9-.56zm-2 6a1 1 0 0 1 2 0v6a1 1 0 0 1-2 0zm5-1a1 1 0 0 0-1 1v6a1 1 0 0 0 2 0v-6a1 1 0 0 0-1-1zm-27 11a8 8 0 1 0 0-16 8 8 0 0 0 0 16zM61.22 9.77a1 1 0 1 0-1.4 1.42l1.28 1.3-1.29 1.28a1 1 0 1 0 1.41 1.42l1.3-1.3 1.3 1.3a1 1 0 1 0 1.4-1.42l-1.29-1.29 1.3-1.3a1 1 0 1 0-1.42-1.4l-1.3 1.29zM112.5 5.5a1 1 0 0 1 .7.3l3 3a1 1 0 1 1-1.4 1.41l-2.3-2.29-2.3 2.3a1 1 0 1 1-1.4-1.42l3-3a1 1 0 0 1 .7-.3zm-3.7 9.3a1 1 0 0 1 1.4 0l2.3 2.3 2.3-2.3a1 1 0 1 1 1.4 1.41l-3 3a1 1 0 0 1-1.4 0l-3-3a1 1 0 0 1 0-1.41zm21.7-9.3a1 1 0 0 1 1-1h12a1 1 0 0 1 1 1v3a1 1 0 0 1-.3.7l-4.7 4.71v3.59a1 1 0 0 1-.3.7l-2 2a1 1 0 0 1-1.7-.7v-5.59l-4.7-4.7a1 1 0 0 1-.3-.71z"/><circle cx="156.5" cy="12.5" r="2"/><circle cx="162.5" cy="12.5" r="2"/><circle cx="168.5" cy="12.5" r="2"/><path d="M180.05 2.05a3 3 0 0 0-3 3v15a3 3 0 0 0 3 3h15a3 3 0 0 0 3-3v-15a3 3 0 0 0-3-3h-15zm.5 2h2.5v17h-2.5a1.5 1.5 0 0 1-1.5-1.5v-14c0-.84.66-1.5 1.5-1.5zm4.5 0h9.5c.82 0 1.5.66 1.5 1.5v14c0 .82-.68 1.5-1.5 1.5h-9.5v-17z"/><path d="m186.55 12.35 6.58-3.8v7.6l-3.3-1.9z"/></g></svg>